<svg width="24" height="24" viewBox="0 0 24 24" fill="none" xmlns="http://www.w3.org/2000/svg">
<circle cx="12" cy="12" r="12" fill="#FEDB00"/>
<path d="M14.9182 6.30909C14.8449 6.23557 14.7578 6.17723 14.6618 6.13743C14.5659 6.09763 14.4631 6.07715 14.3593 6.07715C14.2554 6.07715 14.1526 6.09763 14.0567 6.13743C13.9608 6.17723 13.8736 6.23557 13.8003 6.30909L8.55189 11.5575C8.49334 11.6159 8.44689 11.6853 8.41519 11.7617C8.3835 11.8381 8.36719 11.9201 8.36719 12.0028C8.36719 12.0855 8.3835 12.1674 8.41519 12.2438C8.44689 12.3202 8.49334 12.3896 8.55189 12.448L13.8003 17.6965C14.1098 18.0059 14.6087 18.0059 14.9182 17.6965C15.2277 17.387 15.2277 16.888 14.9182 16.5786L10.3456 11.9996L14.9245 7.42066C15.2277 7.11751 15.2277 6.61224 14.9182 6.30909Z" fill="black"/>
</svg>
